JEFFREYS BAY 2008 - TWI.flv
Format                           : Flash Video
File size                        : 396 MiB
Duration                         : 42mn 34s
Overall bit rate                 : 1 301 Kbps

Video
Format                           : H.263
Duration                         : 42mn 34s
Bit rate                         : 781 Kbps
Width                            : 480 pixels
Height                           : 320 pixels
Display aspect ratio             : 1.500
Frame rate                       : 25.000 fps
Bits/(Pixel*Frame)               : 0.203
Stream size                      : 238 MiB (60%)

Audio
Format                           : MPEG Audio
Format version                   : Version 1
Format profile                   : Layer 3
Mode                             : Joint stereo / MS Stereo
Duration                         : 42mn 34s
Bit rate mode                    : Variable
Bit rate                         : 88.9 Kbps
Channel(s)                       : 2 channels
Sampling rate                    : 44.1 KHz
Resolution                       : 16 bits
Stream size                      : 27.1 MiB (7%)

